<?xml version="1.0" encoding="UTF-8" standalone="no"?>
<!-- Generator: Adobe Fireworks 10, Export SVG Extension by Aaron Beall (http://fireworks.abeall.com) . Version: 0.6.0  -->
<!DOCTYPE svg PUBLIC "-//W3C//DTD SVG 1.1//EN" "http://www.w3.org/Graphics/SVG/1.1/DTD/svg11.dtd">
<svg id="screens" viewBox="0 0 641 296" style="background-color:#ffffff00" version="1.1" xmlns="http://www.w3.org/2000/svg" xmlns:xlink="http://www.w3.org/1999/xlink" xml:space="preserve" x="0px" y="0px" width="641px" height="296px">
	<defs>
		<linearGradient id="gradient1" x1="49.9992%" y1="100%" x2="50.0008%" y2="0%">
			<stop stop-color="#ffffff" stop-opacity="0.9961" offset="0%"/>
			<stop stop-color="#ffffff" stop-opacity="0" offset="100%"/>
		</linearGradient>
		<linearGradient id="gradient2" x1="49.9993%" y1="100%" x2="50.0007%" y2="0%">
			<stop stop-color="#ffffff" stop-opacity="0.9961" offset="0%"/>
			<stop stop-color="#ffffff" stop-opacity="0" offset="100%"/>
		</linearGradient>
		<linearGradient id="gradient3" x1="49.999%" y1="100%" x2="50.0011%" y2="0%">
			<stop stop-color="#ffffff" stop-opacity="0.9961" offset="0%"/>
			<stop stop-color="#ffffff" stop-opacity="0" offset="100%"/>
		</linearGradient>
		<linearGradient id="gradient4" x1="49.9989%" y1="100%" x2="50.0011%" y2="0%">
			<stop stop-color="#ffffff" stop-opacity="0.9961" offset="0%"/>
			<stop stop-color="#ffffff" stop-opacity="0" offset="100%"/>
		</linearGradient>
		<linearGradient id="gradient5" x1="49.9987%" y1="100%" x2="50.0015%" y2="0%">
			<stop stop-color="#ffffff" stop-opacity="0.9961" offset="0%"/>
			<stop stop-color="#ffffff" stop-opacity="0" offset="100%"/>
		</linearGradient>
	</defs>
	<path id="Shadow" d="M 331.1571 286.9934 C 380.7402 286.9934 420.9353 288.3336 420.9353 289.9871 C 420.9353 291.6405 380.7402 292.9807 331.1571 292.9807 C 281.5741 292.9807 241.379 291.6405 241.379 289.9871 C 241.379 288.3336 281.5741 286.9934 331.1571 286.9934 Z" fill="#1189bd"/>
	<path id="Stand" d="M 270.3075 289.0829 L 270.3075 285.677 L 283.2855 283.9647 L 293.921 247.0799 L 329.1353 247.0799 L 330.1597 247.0799 L 365.3738 247.0799 L 376.0093 283.9647 L 388.9873 285.677 L 388.9873 289.0829 L 270.3075 289.0829 Z" fill="#e8eaef"/>
	<path id="Shadow2" opacity="0.098" d="M 291.6194 255.0626 L 293.921 247.0799 L 329.1353 247.0799 L 330.1597 247.0799 L 365.3738 247.0799 L 367.6757 255.0626 L 291.6194 255.0626 Z" fill="#474d5d"/>
	<path id="iMac%20base" d="M 149.6058 214.1512 L 149.6058 7.5975 C 149.6058 3.1891 153.1788 -0.3851 157.5861 -0.3851 L 501.7357 -0.3851 C 506.1431 -0.3851 509.7159 3.1891 509.7159 7.5975 L 509.7159 214.1512 L 149.6058 214.1512 Z" fill="#2f2b2d"/>
	<path id="iMac%20bottom%20base" d="M 501.7357 247.0799 L 157.5861 247.0799 C 153.1788 247.0799 149.6058 243.506 149.6058 239.0971 L 149.6058 214.1512 L 509.7159 214.1512 L 509.7159 239.0971 C 509.7159 243.506 506.1431 247.0799 501.7357 247.0799 Z" fill="#e7ebef"/>
	<path id="Apple" d="M 329.6609 221.9827 C 333.5947 221.9827 336.7837 225.1729 336.7837 229.1078 C 336.7837 233.0425 333.5947 236.2329 329.6609 236.2329 C 325.7272 236.2329 322.5382 233.0425 322.5382 229.1078 C 322.5382 225.1729 325.7272 221.9827 329.6609 221.9827 Z" fill="#474d5d"/>
	<path id="Screen" d="M 495.7505 13.5848 L 495.7505 200.1812 L 163.5713 200.1812 L 163.5713 13.5848 L 495.7505 13.5848 Z" fill="#19a5e1"/>
	<path id="Light" opacity="0.098" d="M 495.7505 214.1512 L 295.246 214.1512 L 495.7505 13.5848 L 495.7505 214.1512 Z" fill="url(#gradient1)"/>
	<path id="Macbook%20base" d="M 146.5738 275.9614 L 29.8622 275.9614 L 29.8622 129.2783 C 29.8622 124.8696 33.4351 121.2957 37.8425 121.2957 L 146.5738 121.2957 L 255.3052 121.2957 C 259.7124 121.2957 263.2854 124.8696 263.2854 129.2783 L 263.2854 275.9614 L 146.5738 275.9614 Z" fill="#2f2b2d"/>
	<path id="Keyboard%20+%20trackpad" d="M 278.2484 289.9308 L 146.5738 289.9308 L 14.8991 289.9308 C 6.9709 289.9308 0.4868 283.7614 -0.027 275.9614 L 146.5738 275.9614 L 293.1747 275.9614 C 292.6608 283.7614 286.1766 289.9308 278.2484 289.9308 Z" fill="#e7ebef"/>
	<path id="Open" d="M 167.5149 275.9614 C 167.0527 278.2384 165.0408 279.9525 162.6279 279.9525 L 146.6674 279.9525 L 146.6674 279.9525 L 146.5738 279.9525 L 146.5738 279.9525 L 130.6132 279.9525 C 128.2003 279.9525 126.1883 278.2384 125.7261 275.9614 L 146.5738 275.9614 L 146.5738 275.9614 L 146.6674 275.9614 L 146.6674 275.9614 L 167.5149 275.9614 Z" fill="#d7dbe1"/>
	<path id="Screen2" d="M 146.5738 267.9783 L 37.8425 267.9783 L 37.8425 265.9826 L 37.8425 131.274 L 37.8425 129.2783 L 146.5738 129.2783 L 255.3052 129.2783 L 255.3052 131.274 L 255.3052 265.9826 L 255.3052 267.9783 L 146.5738 267.9783 Z" fill="#f52f75"/>
	<image id="Vector%20Smart%20Object" x="117" y="181" width="59" height="35" xlink:href="screens.png.svg.images/Vector Smart Object1.png"/>
	<image id="Vector%20Smart%20Object%20copy" x="280" y="77" width="100" height="60" xlink:href="screens.png.svg.images/Vector Smart Object copy1.png"/>
	<path id="Light2" opacity="0.098" d="M 255.3052 141.2782 L 255.3052 287.9613 L 146.5738 287.9613 L 108.6674 287.9613 L 255.3052 141.2782 Z" fill="url(#gradient2)"/>
	<path id="Shadow3" d="M 519.5428 287.968 C 558.7134 287.968 590.4675 289.7547 590.4675 291.959 C 590.4675 294.1636 558.7134 295.9506 519.5428 295.9506 C 480.3722 295.9506 448.618 294.1636 448.618 291.959 C 448.618 289.7547 480.3722 287.968 519.5428 287.968 Z" fill="#1189bd"/>
	<path id="iPad%20base" d="M 462.6833 116.3389 L 576.4022 116.3389 C 581.9115 116.3389 586.3777 120.8065 586.3777 126.3175 L 586.3777 281.9807 C 586.3777 287.4915 581.9115 291.959 576.4022 291.959 L 462.6833 291.959 C 457.1741 291.959 452.7079 287.4915 452.7079 281.9807 L 452.7079 126.3175 C 452.7079 120.8065 457.1741 116.3389 462.6833 116.3389 Z" fill="#2f2b2d"/>
	<path id="Screen3" d="M 465.6759 134.3001 L 573.4097 134.3001 L 573.4097 273.9981 L 465.6759 273.9981 L 465.6759 134.3001 Z" fill="#bf33a1"/>
	<image id="Vector%20Smart%20Object2" x="486" y="184" width="67" height="40" xlink:href="screens.png.svg.images/Vector Smart Object2.png"/>
	<path id="Homebutton" d="M 519.5428 278.8177 C 521.8263 278.8177 523.6775 280.6694 523.6775 282.9539 C 523.6775 285.238 521.8263 287.0901 519.5428 287.0901 C 517.2593 287.0901 515.4081 285.238 515.4081 282.9539 C 515.4081 280.6694 517.2593 278.8177 519.5428 278.8177 Z" fill="#ffffff"/>
	<path id="Speaker%20+%20cam" d="M 527.5231 127.3152 L 517.5477 127.3152 C 516.9968 127.3152 516.5502 126.8687 516.5502 126.3175 C 516.5502 125.7661 516.9968 125.3196 517.5477 125.3196 L 527.5231 125.3196 C 528.074 125.3196 528.5206 125.7661 528.5206 126.3175 C 528.5206 126.8687 528.074 127.3152 527.5231 127.3152 ZM 512.5601 127.3152 C 512.0092 127.3152 511.5625 126.8687 511.5625 126.3175 C 511.5625 125.7661 512.0092 125.3196 512.5601 125.3196 C 513.1111 125.3196 513.5575 125.7661 513.5575 126.3175 C 513.5575 126.8687 513.1111 127.3152 512.5601 127.3152 Z" fill="#a5adbd"/>
	<path id="Light3" opacity="0.149" d="M 573.4097 134.3001 L 573.4097 291.959 L 462.6833 291.959 C 457.1741 291.959 452.7079 287.4915 452.7079 281.9807 L 452.7079 255.0388 L 573.4097 134.3001 Z" fill="url(#gradient3)"/>
	<path id="Shadow4" d="M 594.3208 287.968 C 620.1735 287.968 641.1312 289.7547 641.1312 291.959 C 641.1312 294.1636 620.1735 295.9506 594.3208 295.9506 C 568.4683 295.9506 547.5105 294.1636 547.5105 291.959 C 547.5105 289.7547 568.4683 287.968 594.3208 287.968 Z" fill="#138dc1"/>
	<path id="iPad%20mini%20base" d="M 558.4097 154.2569 L 631.2296 154.2569 C 636.7389 154.2569 641.205 158.7245 641.205 164.235 L 641.205 281.9807 C 641.205 287.4915 636.7389 291.959 631.2296 291.959 L 558.4097 291.959 C 552.9004 291.959 548.4343 287.4915 548.4343 281.9807 L 548.4343 164.235 C 548.4343 158.7245 552.9004 154.2569 558.4097 154.2569 Z" fill="#2f2b2d"/>
	<path id="Screen4" d="M 636.2173 277.9891 L 553.4219 277.9891 L 552.4244 277.9891 L 552.4244 167.2287 L 553.4219 167.2287 L 636.2173 167.2287 L 637.2148 167.2287 L 637.2148 277.9891 L 636.2173 277.9891 Z" fill="#f9a531"/>
	<image id="Vector%20Smart%20Object3" x="565" y="205" width="59" height="35" xlink:href="screens.png.svg.images/Vector Smart Object3.png"/>
	<path id="Homebutton2" d="M 593.3232 280.8133 C 595.6068 280.8133 597.458 282.6651 597.458 284.9497 C 597.458 287.2338 595.6068 289.0854 593.3232 289.0854 C 591.0397 289.0854 589.1886 287.2338 589.1886 284.9497 C 589.1886 282.6651 591.0397 280.8133 593.3232 280.8133 Z" fill="#ffffff"/>
	<path id="Speaker%20+%20cam2" d="M 599.3085 162.2393 L 589.3333 162.2393 C 588.7822 162.2393 588.3357 161.7928 588.3357 161.2419 C 588.3357 160.6905 588.7822 160.244 589.3333 160.244 L 599.3085 160.244 C 599.8595 160.244 600.306 160.6905 600.306 161.2419 C 600.306 161.7928 599.8595 162.2393 599.3085 162.2393 ZM 584.3455 162.2393 C 583.7946 162.2393 583.348 161.7928 583.348 161.2419 C 583.348 160.6905 583.7946 160.244 584.3455 160.244 C 584.8965 160.244 585.343 160.6905 585.343 161.2419 C 585.343 161.7928 584.8965 162.2393 584.3455 162.2393 Z" fill="#a5adbd"/>
	<path id="Light4" opacity="0.098" d="M 637.2148 168.2266 L 637.2148 289.9502 C 635.5465 291.2056 633.4785 291.959 631.2296 291.959 L 558.4097 291.959 C 552.9004 291.959 548.4343 287.4915 548.4343 281.9807 L 548.4343 257.0345 L 637.2148 168.2266 Z" fill="url(#gradient4)"/>
	<path id="iPhone%205%20base" d="M 238.1702 169.1814 L 276.0765 169.1814 C 281.5858 169.1814 286.0519 173.6487 286.0519 179.1597 L 286.0519 282.9355 C 286.0519 288.4465 281.5858 292.9139 276.0765 292.9139 L 238.1702 292.9139 C 232.661 292.9139 228.1948 288.4465 228.1948 282.9355 L 228.1948 179.1597 C 228.1948 173.6487 232.661 169.1814 238.1702 169.1814 Z" fill="#2f2b2d"/>
	<path id="screen" d="M 232.1849 274.9529 L 232.1849 187.1426 L 282.0618 187.1426 L 282.0618 274.9529 L 232.1849 274.9529 Z" fill="#c1d145"/>
	<image id="Vector%20Smart%20Object4" x="238" y="219" width="38" height="23" xlink:href="screens.png.svg.images/Vector Smart Object4.png"/>
	<path id="Speaker%20+%20cam3" d="M 264.1061 180.1576 L 254.1309 180.1576 C 253.5798 180.1576 253.1333 179.7109 253.1333 179.1597 C 253.1333 178.6086 253.5798 178.1619 254.1309 178.1619 L 264.1061 178.1619 C 264.6571 178.1619 265.1036 178.6086 265.1036 179.1597 C 265.1036 179.7109 264.6571 180.1576 264.1061 180.1576 ZM 249.1432 180.1576 C 248.5922 180.1576 248.1456 179.7109 248.1456 179.1597 C 248.1456 178.6086 248.5922 178.1619 249.1432 178.1619 C 249.694 178.1619 250.1406 178.6086 250.1406 179.1597 C 250.1406 179.7109 249.694 180.1576 249.1432 180.1576 Z" fill="#a5adbd"/>
	<path id="Light5" opacity="0.098" d="M 281.0643 189.1383 L 281.0643 291.5679 C 279.5958 292.4189 277.8956 292.9139 276.0765 292.9139 L 238.1702 292.9139 C 232.661 292.9139 228.1948 288.4465 228.1948 282.9355 L 228.1948 242.0237 L 281.0643 189.1383 Z" fill="url(#gradient5)"/>
</svg>