<?xml version="1.0" encoding="UTF-8" standalone="no"?>
<!-- Created with Inkscape (http://www.inkscape.org/) -->

<svg
   xmlns:dc="http://purl.org/dc/elements/1.1/"
   xmlns:cc="http://creativecommons.org/ns#"
   xmlns:rdf="http://www.w3.org/1999/02/22-rdf-syntax-ns#"
   xmlns:svg="http://www.w3.org/2000/svg"
   xmlns="http://www.w3.org/2000/svg"
   version="1.1"
   width="502.84305"
   height="230"
   viewBox="0 0 502.84305 230"
   id="screens"
   xml:space="preserve"><metadata
     id="metadata3868"><rdf:RDF><cc:Work
         rdf:about=""><dc:format>image/svg+xml</dc:format><dc:type
           rdf:resource="http://purl.org/dc/dcmitype/StillImage" /><dc:title></dc:title></cc:Work></rdf:RDF></metadata><defs
     id="defs3805"><linearGradient
       x1="0.49999198"
       y1="1"
       x2="0.50000799"
       y2="0"
       id="gradient1"><stop
         id="stop3808"
         style="stop-color:#ffffff;stop-opacity:0.99610001"
         offset="0" /><stop
         id="stop3810"
         style="stop-color:#ffffff;stop-opacity:0"
         offset="1" /></linearGradient><linearGradient
       x1="0.49999297"
       y1="1"
       x2="0.50000703"
       y2="0"
       id="gradient2"><stop
         id="stop3813"
         style="stop-color:#ffffff;stop-opacity:0.99610001"
         offset="0" /><stop
         id="stop3815"
         style="stop-color:#ffffff;stop-opacity:0"
         offset="1" /></linearGradient><linearGradient
       x1="0.49999002"
       y1="1"
       x2="0.50001097"
       y2="0"
       id="gradient3"><stop
         id="stop3818"
         style="stop-color:#ffffff;stop-opacity:0.99610001"
         offset="0" /><stop
         id="stop3820"
         style="stop-color:#ffffff;stop-opacity:0"
         offset="1" /></linearGradient><linearGradient
       x1="0.499989"
       y1="1"
       x2="0.50001097"
       y2="0"
       id="gradient4"><stop
         id="stop3823"
         style="stop-color:#ffffff;stop-opacity:0.99610001"
         offset="0" /><stop
         id="stop3825"
         style="stop-color:#ffffff;stop-opacity:0"
         offset="1" /></linearGradient><linearGradient
       x1="0.49998701"
       y1="1"
       x2="0.50001502"
       y2="0"
       id="gradient5"><stop
         id="stop3828"
         style="stop-color:#ffffff;stop-opacity:0.99610001"
         offset="0" /><stop
         id="stop3830"
         style="stop-color:#ffffff;stop-opacity:0"
         offset="1" /></linearGradient></defs><path
     d="m 211.99164,226.9958 0,-2.67085 10.17712,-1.34276 8.34017,-28.92442 27.61445,0 0.80332,0 27.61428,0 8.34018,28.92442 10.17712,1.34276 0,2.67085 -93.06664,0 z"
     id="Stand"
     style="fill:#e8eaef" /><path
     d="m 228.70406,200.31767 1.80487,-6.2599 27.61445,0 0.80332,0 27.61428,0 1.80511,6.2599 -59.64203,0 z"
     id="Shadow2"
     style="opacity:0.09800002;fill:#474d5d" /><path
     d="m 117.33945,168.23565 0,-161.975833 C 117.33945,2.802826 120.14134,0 123.59747,0 l 269.87616,0 c 3.4562,0 6.25793,2.802826 6.25793,6.259817 l 0,161.975833 -282.39211,0 z"
     id="iMac%20base"
     style="fill:#2f2b2d" /><path
     d="m 393.47363,194.05777 -269.87616,0 c -3.45613,0 -6.25802,-2.80259 -6.25802,-6.25997 l 0,-19.56215 282.39211,0 0,19.56215 c 0,3.45738 -2.80173,6.25997 -6.25793,6.25997 z"
     id="iMac%20bottom%20base"
     style="fill:#e7ebef" /><path
     d="m 258.53555,174.37698 c 3.08481,0 5.58557,2.5017 5.58557,5.58738 0,3.08552 -2.50076,5.58738 -5.58557,5.58738 -3.08474,0 -5.5855,-2.50186 -5.5855,-5.58738 0,-3.08568 2.50076,-5.58738 5.5855,-5.58738 z"
     id="Apple"
     style="fill:#474d5d" /><path
     d="m 388.78014,10.954954 0,146.325666 -260.48918,0 0,-146.325666 260.48918,0 z"
     id="Screen"
     style="fill:#19a5e1" /><path
     d="m 114.96181,216.70614 -91.523217,0 0,-115.02635 c 0,-3.45722 2.801807,-6.25981 6.258014,-6.25981 l 85.265203,0 85.26528,0 c 3.45605,0 6.25794,2.80259 6.25794,6.25981 l 0,115.02635 -91.52322,0 z"
     id="Macbook%20base"
     style="fill:#2f2b2d" /><path
     d="m 218.21875,227.6607 -103.25694,0 -103.257021,0 C 5.4876321,227.6607 0.40291307,222.82277 0,216.70614 l 114.96181,0 114.96189,0 c -0.40299,6.11663 -5.48779,10.95456 -11.70495,10.95456 z"
     id="Keyboard%20+%20trackpad"
     style="fill:#e7ebef" /><path
     d="m 131.38346,216.70614 c -0.36245,1.78559 -1.94015,3.12975 -3.8323,3.12975 l -12.51595,0 0,0 -0.0734,0 0,0 -12.51603,0 c -1.89215,0 -3.469926,-1.34416 -3.832375,-3.12975 l 16.348405,0 0,0 0.0734,0 0,0 16.34825,0 z"
     id="Open"
     style="fill:#d7dbe1" /><path
     d="m 114.96181,210.44593 -85.265203,0 0,-1.56499 0,-105.63615 0,-1.565 85.265203,0 85.26528,0 0,1.565 0,105.63615 0,1.56499 -85.26528,0 z"
     id="Screen2"
     style="fill:#f52f75" /><path
     d="m 362.84941,91.53294 89.17639,0 c 4.3203,0 7.82262,3.50342 7.82262,7.82505 l 0,122.06838 c 0,4.32148 -3.50232,7.82481 -7.82262,7.82481 l -89.17639,0 c -4.32022,0 -7.82254,-3.50333 -7.82254,-7.82481 l 0,-122.06838 c 0,-4.32163 3.50232,-7.82505 7.82254,-7.82505 z"
     id="iPad%20base"
     style="fill:#2f2b2d" /><path
     d="m 365.19615,105.6178 84.48299,0 0,109.54876 -84.48299,0 0,-109.54876 z"
     id="Screen3"
     style="fill:#bf33a1" /><path
     d="m 407.43765,218.946 c 1.79068,0 3.24236,1.45208 3.24236,3.24354 0,1.79115 -1.45168,3.24354 -3.24236,3.24354 -1.79069,0 -3.24236,-1.45239 -3.24236,-3.24354 0,-1.79146 1.45167,-3.24354 3.24236,-3.24354 z"
     id="Homebutton"
     style="fill:#ffffff" /><path
     d="m 413.69566,100.14037 -7.82254,0 c -0.432,0 -0.78222,-0.35014 -0.78222,-0.78238 0,-0.4324 0.35022,-0.78254 0.78222,-0.78254 l 7.82254,0 c 0.432,0 0.78222,0.35014 0.78222,0.78254 0,0.43224 -0.35022,0.78238 -0.78222,0.78238 z m -11.73373,0 c -0.432,0 -0.7823,-0.35014 -0.7823,-0.78238 0,-0.4324 0.3503,-0.78254 0.7823,-0.78254 0.43209,0 0.78215,0.35014 0.78215,0.78254 0,0.43224 -0.35006,0.78238 -0.78215,0.78238 z"
     id="Speaker%20+%20cam"
     style="fill:#a5adbd" /><path
     d="m 437.9164,121.26758 57.1041,0 c 4.3203,0 7.82254,3.50341 7.82254,7.82465 l 0,92.33414 c 0,4.32148 -3.50224,7.82481 -7.82254,7.82481 l -57.1041,0 c -4.3203,0 -7.82254,-3.50333 -7.82254,-7.82481 l 0,-92.33414 c 0,-4.32124 3.50224,-7.82465 7.82254,-7.82465 z"
     id="iPad%20mini%20base"
     style="fill:#2f2b2d" /><path
     d="m 498.93177,218.29623 -64.92672,0 -0.78222,0 0,-86.85639 0.78222,0 64.92672,0 0.78222,0 0,86.85639 -0.78222,0 z"
     id="Screen4"
     style="fill:#f9a531" /><path
     d="m 465.29496,220.51092 c 1.79076,0 3.24244,1.45215 3.24244,3.24369 0,1.79115 -1.45168,3.24315 -3.24244,3.24315 -1.79068,0 -3.24228,-1.452 -3.24228,-3.24315 0,-1.79154 1.4516,-3.24369 3.24228,-3.24369 z"
     id="Homebutton2"
     style="fill:#ffffff" /><path
     d="m 469.98853,127.52724 -7.82238,0 c -0.43217,0 -0.7823,-0.35014 -0.7823,-0.78214 0,-0.4324 0.35013,-0.78254 0.7823,-0.78254 l 7.82238,0 c 0.43208,0 0.78222,0.35014 0.78222,0.78254 0,0.432 -0.35014,0.78214 -0.78222,0.78214 z m -11.73373,0 c -0.432,0 -0.78222,-0.35014 -0.78222,-0.78214 0,-0.4324 0.35022,-0.78254 0.78222,-0.78254 0.43209,0 0.78222,0.35014 0.78222,0.78254 0,0.432 -0.35013,0.78214 -0.78222,0.78214 z"
     id="Speaker%20+%20cam2"
     style="fill:#a5adbd" /><path
     d="m 186.79012,132.97111 29.72547,0 c 4.32029,0 7.82253,3.50318 7.82253,7.82481 l 0,81.37919 c 0,4.32163 -3.50224,7.82489 -7.82253,7.82489 l -29.72547,0 c -4.32022,0 -7.82253,-3.50326 -7.82253,-7.82489 l 0,-81.37919 c 0,-4.32163 3.50231,-7.82481 7.82253,-7.82481 z"
     id="iPhone%205%20base"
     style="fill:#2f2b2d" /><path
     d="m 182.09655,215.91529 0,-68.85931 39.11261,0 0,68.85931 -39.11261,0 z"
     id="screen"
     style="fill:#c1d145" /><path
     d="m 207.12861,141.57846 -7.82238,0 c -0.43217,0 -0.7823,-0.35029 -0.7823,-0.78254 0,-0.43216 0.35013,-0.78245 0.7823,-0.78245 l 7.82238,0 c 0.43208,0 0.78222,0.35029 0.78222,0.78245 0,0.43225 -0.35014,0.78254 -0.78222,0.78254 z m -11.73365,0 c -0.43209,0 -0.7823,-0.35029 -0.7823,-0.78254 0,-0.43216 0.35021,-0.78245 0.7823,-0.78245 0.43193,0 0.78214,0.35029 0.78214,0.78245 0,0.43225 -0.35021,0.78254 -0.78214,0.78254 z"
     id="Speaker%20+%20cam3"
     style="fill:#a5adbd" /></svg>